<svg version="1.1" viewBox="0.0 0.0 345.31758530183725 100.3254593175853" fill="none" stroke="none" stroke-linecap="square" stroke-miterlimit="10" xmlns:xlink="http://www.w3.org/1999/xlink" xmlns="http://www.w3.org/2000/svg"><clipPath id="p.0"><path d="m0 0l345.3176 0l0 100.32546l-345.3176 0l0 -100.32546z" clip-rule="nonzero"/></clipPath><g clip-path="url(#p.0)"><path fill="#000000" fill-opacity="0.0" d="m0 0l345.3176 0l0 100.32546l-345.3176 0z" fill-rule="evenodd"/><path fill="#000000" fill-opacity="0.0" d="m0 0l191.65355 0l0 96.944885l-191.65355 0z" fill-rule="evenodd"/><path fill="#000000" d="m13.671875 54.768745l0 22.03125l-7.8125 0l0 -57.234375q8.875 -0.390625 10.703125 -0.390625q24.921875 0 24.921875 16.6875q0 19.296875 -22.03125 19.296875q-1.328125 0 -5.78125 -0.390625zm0 -28.171875l0 21.140625q4.96875 0.390625 5.234375 0.390625q14.53125 0 14.53125 -11.453125q0 -10.46875 -15.5 -10.46875q-1.5625 0 -4.265625 0.390625zm56.09375 45.390625q-4.453125 5.59375 -13.625 5.59375q-4.921875 0 -8.546875 -3.578125q-3.609375 -3.578125 -3.609375 -8.890625q0 -6.359375 5.5625 -10.75q5.578125 -4.40625 14.203125 -4.40625q2.34375 0 5.3125 1.015625q0 -10.15625 -9.0625 -10.15625q-6.953125 0 -10.703125 3.75l-3.125 -6.203125q2.109375 -1.71875 5.84375 -2.953125q3.734375 -1.234375 7.125 -1.234375q9.109375 0 13.21875 4.140625q4.125 4.140625 4.125 13.171875l0 15.0q0 5.5 3.28125 7.34375l0 3.71875q-4.53125 0 -6.78125 -1.296875q-2.234375 -1.296875 -3.21875 -4.265625zm-0.703125 -15.734375q-3.515625 -0.78125 -4.921875 -0.78125q-5.625 0 -9.1875 2.890625q-3.546875 2.890625 -3.546875 6.828125q0 6.53125 7.703125 6.53125q5.625 0 9.953125 -5.359375l0 -10.109375zm41.84375 -14.140625q-2.421875 -1.6875 -4.890625 -1.6875q-3.9375 0 -6.890625 3.640625q-2.953125 3.625 -2.953125 8.75l0 23.984375l-7.421875 0l0 -41.84375l7.421875 0l0 6.6875q4.0625 -7.46875 12.078125 -7.46875q1.984375 0 5.734375 0.703125l-3.078125 7.234375zm11.015625 -1.296875l-4.84375 0l0 -5.859375l4.84375 0l0 -8.75l7.421875 -2.84375l0 11.59375l11.484375 0l0 5.859375l-11.484375 0l0 20.78125q0 5.28125 1.765625 7.515625q1.78125 2.21875 5.734375 2.21875q2.84375 0 5.890625 -1.453125l1.09375 6.53125q-4.609375 1.171875 -10.109375 1.171875q-4.96875 0 -8.390625 -3.6875q-3.40625 -3.703125 -3.40625 -9.328125l0 -23.75zm45.03125 43.09375q-1.4375 3.984375 -6.078125 6.640625q-4.625 2.65625 -10.328125 2.65625l0 -6.640625q4.65625 0 7.96875 -2.171875q3.328125 -2.15625 3.328125 -5.28125q0 -3.453125 -1.21875 -6.78125q-1.203125 -3.34375 -3.125 -8.265625l-11.328125 -29.109375l7.578125 0l12.3125 32.34375l11.046875 -32.34375l7.578125 0l-17.734375 48.953125z" fill-rule="nonzero"/><path fill="#ff76ff" d="m191.65355 16.354l0 0c0 -9.032064 7.32193 -16.354 16.353989 -16.354l121.02429 0c4.3373413 0 8.49704 1.7230059 11.564026 4.789976c3.0669556 3.0669699 4.789978 7.226674 4.789978 11.564024l0 67.79593c0 9.032066 -7.32193 16.354004 -16.354004 16.354004l-121.02429 0c-9.032059 0 -16.353989 -7.3219376 -16.353989 -16.354004z" fill-rule="evenodd"/><path fill="#ffffff" d="m236.87906 79.05196l0 -27.65625l-25.0 0l0 27.65625l-7.8125 0l0 -57.234375l7.8125 0l0 22.937502l25.0 0l0 -22.937502l7.8125 0l0 57.234375l-7.8125 0zm25.984375 -41.84375l0 26.6875q0 9.6875 8.390625 9.6875q3.671875 0 6.71875 -2.109375q3.046875 -2.109375 4.03125 -4.890625l0 -29.375l7.421875 0l0 41.84375l-7.421875 0l0 -5.78125q-1.25 2.453125 -5.03125 4.515625q-3.765625 2.046875 -7.359375 2.046875q-6.875 0 -10.53125 -3.9375q-3.640625 -3.953125 -3.640625 -11.21875l0 -27.46875l7.421875 0zm43.007812 38.828125l-2.625 3.796875l-3.703125 0l0 -59.765625l7.421875 0l0 20.234377q1.046875 -1.453125 3.953125 -2.65625q2.921875 -1.21875 5.734375 -1.21875q8.59375 0 13.921875 5.9375q5.328125 5.9375 5.328125 15.0q0 10.46875 -5.359375 16.46875q-5.34375 6.0 -14.484375 6.0q-2.96875 0 -5.84375 -1.109375q-2.859375 -1.125 -4.34375 -2.6875zm1.09375 -30.078125l0 24.140625q0 0.625 2.765625 2.0625q2.78125 1.421875 4.21875 1.421875q7.578125 0 10.859375 -3.625q3.28125 -3.640625 3.28125 -12.203125q0 -7.109375 -3.828125 -11.09375q-3.828125 -3.984375 -10.3125 -3.984375q-1.359375 0 -3.8125 1.171875q-2.4375 1.171875 -3.171875 2.109375z" fill-rule="nonzero"/></g></svg>