<svg version="1.1" viewBox="0.0 0.0 105.80839895013123 100.0" fill="none" stroke="none" stroke-linecap="square" stroke-miterlimit="10" xmlns:xlink="http://www.w3.org/1999/xlink" xmlns="http://www.w3.org/2000/svg"><clipPath id="p.0"><path d="m0 0l105.808395 0l0 100.0l-105.808395 0l0 -100.0z" clip-rule="nonzero"/></clipPath><g clip-path="url(#p.0)"><path fill="#000000" fill-opacity="0.0" d="m0 0l105.808395 0l0 100.0l-105.808395 0z" fill-rule="evenodd"/><path fill="#000000" fill-opacity="0.0" d="m0 0l44.913387 0l0 100.0l-44.913387 0z" fill-rule="evenodd"/><path fill="#000000" d="m13.823881 56.768753l0 22.03125l-7.8125 0l0 -57.234375q8.875 -0.390625 10.703125 -0.390625q24.921877 0 24.921877 16.6875q0 19.296875 -22.031252 19.296875q-1.328125 0 -5.78125 -0.390625zm0 -28.171875l0 21.140625q4.96875 0.390625 5.234375 0.390625q14.531252 0 14.531252 -11.453125q0 -10.46875 -15.500002 -10.46875q-1.5625 0 -4.265625 0.390625z" fill-rule="nonzero"/><path fill="#00ffff" d="m44.913387 9.922076l0 0c0 -5.479811 4.4422646 -9.922076 9.922073 -9.922076l41.13223 0l0 0c2.6314926 0 5.1552124 1.0453587 7.0159683 2.9061089c1.8607483 1.8607502 2.906105 4.384469 2.906105 7.0159674l0 80.15585c0 5.479805 -4.4422607 9.922073 -9.922073 9.922073l-41.13223 0c-5.479809 0 -9.922073 -4.4422684 -9.922073 -9.922073z" fill-rule="evenodd"/><path fill="#000000" d="m87.90157 78.799995l0 -27.656246l-25.0 0l0 27.656246l-7.8125 0l0 -57.234375l7.8125 0l0 22.937502l25.0 0l0 -22.937502l7.8125 0l0 57.234375l-7.8125 0z" fill-rule="nonzero"/></g></svg>